Coordinates
version=1
nRows=19
nColumns=24
inDegrees=yes

Units are S.I. units (second, meters, Newtons, ...)
Angles are in degrees.

endheader
time	pelvis_tilt	pelvis_list	pelvis_rotation	pelvis_tx	pelvis_ty	pelvis_tz	hip_flexion_r	hip_adduction_r	hip_rotation_r	knee_angle_r	ankle_angle_r	subtalar_angle_r	mtp_angle_r	hip_flexion_l	hip_adduction_l	hip_rotation_l	knee_angle_l	ankle_angle_l	subtalar_angle_l	mtp_angle_l	lumbar_extension	lumbar_bending	lumbar_rotation
      1.13783333	     -0.86480420	     -2.32538348	     -1.72935336	     -0.15123706	      1.01012122	      0.35352109	    -13.21422234	      7.54219014	      2.45765536	     -9.89579642	     15.44568210	     -1.64729667	      1.44266351	     22.70791125	     -0.79300616	     -1.27476282	      3.09175776	      8.08912782	     -3.62745036	     -0.68667679	     -1.72036871	     -0.41051944	      8.23685528
      1.14200000	     -0.85631518	     -2.18539839	     -1.81241127	     -0.14566255	      1.00951662	      0.35340207	    -13.33319788	      7.37033538	      2.51721489	    -10.34575803	     15.48555710	     -1.73877447	      1.45038183	     22.76148224	     -0.58176909	     -1.18816106	      2.47413717	      8.28079129	     -3.74063183	     -0.65430831	     -1.72705268	     -0.58343920	      8.25763104
      1.14616667	     -0.92499633	     -2.07490200	     -1.89440366	     -0.14007379	      1.00881138	      0.35326472	    -13.33353194	      7.23207085	      2.55119217	    -10.87267466	     15.55802085	     -1.75429908	      1.49770018	     22.93237903	     -0.40598842	     -1.19264953	      1.75272290	      8.52401493	     -3.65605297	     -0.49474593	     -1.59233354	     -0.73378853	      8.38696036
      1.15033333	     -0.91291315	     -1.92540411	     -1.97091167	     -0.13439434	      1.00825303	      0.35313792	    -13.43013997	      7.05381025	      2.60749765	    -11.38086804	     15.56243961	     -1.85943998	      1.51289817	     22.96888003	     -0.18752557	     -1.11910365	      1.09529781	      8.65810795	     -3.77485245	     -0.44519082	     -1.57928218	     -0.92353625	      8.41104118
      1.15450000	     -0.95365279	     -1.79978684	     -2.04385643	     -0.12869093	      1.00762831	      0.35300149	    -13.44861713	      6.90578973	      2.66817556	    -11.93689839	     15.56910746	     -1.94399654	      1.55578685	     23.07168700	      0.00402222	     -1.05155455	      0.39991252	      8.77022222	     -3.85320723	     -0.32898721	     -1.46298418	     -1.11603051	      8.49590265
      1.15866667	     -0.96281242	     -1.66716498	     -2.11690193	     -0.12294431	      1.00709229	      0.35284808	    -13.48514954	      6.74667815	      2.71442819	    -12.52169787	     15.51830915	     -2.03994484	      1.59648162	     23.12195979	      0.20257529	     -0.99824964	     -0.27295707	      8.80098311	     -3.97501784	     -0.22816728	     -1.40421484	     -1.28525990	      8.55802413
      1.16283333	     -1.03216195	     -1.54098938	     -2.18469697	     -0.11716498	      1.00646635	      0.35267542	    -13.43632158	      6.59944198	      2.76731604	    -13.15043998	     15.45545756	     -2.11984047	      1.69669746	     23.22998541	      0.39514948	     -0.89285666	     -0.93959141	      8.75688245	     -4.15768040	     -0.01081984	     -1.27026417	     -1.44973858	      8.67355900
      1.16700000	     -1.00881518	     -1.41333470	     -2.24823685	     -0.11133393	      1.00601379	      0.35247411	    -13.48731099	      6.44397673	      2.80862646	    -13.77217729	     15.29916765	     -2.24279897	      3.26280180	     23.20817894	      0.59471510	     -0.78229611	     -1.54338600	      8.53586746	     -4.51728486	      2.96573192	     -1.23877945	     -1.60239866	      8.66210337
      1.17116667	     -1.03508487	     -1.27956135	     -2.30416327	     -0.10545774	      1.00551517	      0.35225720	    -13.44899021	      6.28349892	      2.79680227	    -14.47005497	     15.15790161	     -2.32573564	      3.29092362	     23.23120671	      0.79827720	     -0.68009065	     -2.14051185	      8.38989518	     -4.69090704	      2.99136950	     -1.12983744	     -1.78831017	      8.76297292
      1.17533333	     -1.06882505	     -1.14814093	     -2.36389257	     -0.09954838	      1.00503360	      0.35203640	    -13.38397204	      6.12318811	      2.78541502	    -15.20492264	     15.00144038	     -2.37214714	      3.35855392	     23.24094627	      0.99920971	     -0.52909406	     -2.69473946	      8.11719888	     -5.02780833	      3.04990762	     -1.01034340	     -1.95857360	      8.83998980
      1.17950000	     -1.09765434	     -1.03609850	     -2.40894217	     -0.09362963	      1.00458631	      0.35173975	    -13.30132556	      5.97839202	      2.72778688	    -15.97956822	     14.82720697	     -2.38746127	      3.50767282	     23.22965034	      1.19235017	     -0.29963489	     -3.21113414	      7.74890084	     -5.54038516	      3.17387047	     -0.89479993	     -2.07791210	      8.90105216
      1.18366667	     -1.08528127	     -0.89463052	     -2.45151985	     -0.08765022	      1.00424029	      0.35143982	    -13.24721313	      5.79550940	      2.63541183	    -16.78185429	     14.60700658	     -2.37136403	      3.72719590	     23.14936938	      1.41488390	     -0.09920727	     -3.67632931	      7.30859799	     -6.01797433	      3.34601242	     -0.82664030	     -2.25936679	      8.93341901
      1.18783333	     -1.12124359	     -0.76730089	     -2.48591636	     -0.08165029	      1.00384650	      0.35109867	    -13.11219008	      5.62585923	      2.51301298	    -17.63684628	     14.34905078	     -2.33554322	      3.98245372	     23.12262634	      1.62214668	      0.09216048	     -4.14183568	      6.85018913	     -6.44720500	      3.53221665	     -0.69163141	     -2.41702686	      8.94683614
      1.19200000	     -1.10813773	     -0.63498008	     -2.50869360	     -0.07561094	      1.00357805	      0.35073209	    -13.02579249	      5.44647404	      2.37180786	    -18.47624851	     13.89510914	     -2.39958864	      6.70010066	     23.02265132	      1.83787462	      0.28547782	     -4.55912580	      6.28710049	     -6.89611365	      5.35998830	     -0.61450184	     -2.58027439	      8.92297653
      1.19616667	     -1.10345566	     -0.47966621	     -2.54149819	     -0.06954984	      1.00332727	      0.35032879	    -12.87409955	      5.21704323	      2.11161984	    -19.43727931	     13.63008765	     -2.16404032	      6.78917439	     22.93215959	      2.07080746	      0.39908198	     -4.98364637	      5.78643731	     -7.23721252	      5.38156823	     -0.52625884	     -2.77497745	      8.96355591
      1.20033333	     -1.10193131	     -0.32748846	     -2.56205597	     -0.06347241	      1.00312127	      0.34989458	    -12.70153646	      4.98872791	      1.84061588	    -20.41825138	     13.26524453	     -1.98693770	      6.95213554	     22.82921455	      2.30545228	      0.57107640	     -5.37310800	      5.21332829	     -7.66741340	      5.43326917	     -0.43060778	     -2.95992535	      8.95237758
      1.20450000	     -1.08654196	     -0.16999912	     -2.57458647	     -0.05737868	      1.00297520	      0.34942718	    -12.51768358	      4.74276800	      1.52000347	    -21.43815932	     12.85158821	     -1.77196485	      7.17739278	     22.70796288	      2.54553337	      0.71977124	     -5.75708794	      4.64249762	     -8.04764380	      5.50507135	     -0.35112292	     -3.15391938	      8.93038933
      1.20866667	     -1.06375705	     -0.00950440	     -2.57985353	     -0.05127382	      1.00287921	      0.34891221	    -12.31228609	      4.47650004	      1.13467268	    -22.49980075	     12.37719459	     -1.49353312	      7.54489812	     22.57058804	      2.79195575	      0.88676967	     -6.12847700	      4.07822131	     -8.45611435	      5.61909723	     -0.27533750	     -3.33368585	      8.89483603
      1.21283333	     -0.99711089	      0.14342794	     -2.57881195	     -0.04517008	      1.00290821	      0.34841747	    -12.15350500	      4.22273672	      0.79178232	    -23.53610214	     11.71169014	     -1.42716809	      7.61523748	     22.42264628	      3.01453279	      0.85368053	     -6.58424863	      3.68070268	     -8.50100389	      5.63684635	     -0.26542500	     -3.52360066	      8.87875204
